<svg width="236" height="24" viewBox="0 0 236 24" fill="none" xmlns="http://www.w3.org/2000/svg">
<g clip-path="url(#clip0_2636_2589)">
<g clip-path="url(#clip1_2636_2589)">
<path fill-rule="evenodd" clip-rule="evenodd" d="M85.5 11.5704C85.5 5.1801 80.3515 0 74.0014 0C67.6485 0.00143732 62.5 5.1801 62.5 11.5719C62.5 17.3456 66.7056 22.1319 72.2019 23V14.9151H69.2842V11.5719H72.2048V9.02062C72.2048 6.12155 73.9224 4.52037 76.5484 4.52037C77.8075 4.52037 79.1226 4.74603 79.1226 4.74603V7.59193H77.6724C76.2451 7.59193 75.7995 8.4845 75.7995 9.40008V11.5704H78.9875L78.4787 14.9136H75.7981V22.9986C81.2944 22.1304 85.5 17.3441 85.5 11.5704Z" fill="#96BB7C"/>
</g>
<g clip-path="url(#clip2_2636_2589)">
<path d="M118.5 1C115.515 1 115.14 1.01375 113.967 1.066C112.794 1.121 111.995 1.30525 111.295 1.5775C110.561 1.85363 109.896 2.28676 109.347 2.84663C108.787 3.39621 108.354 4.06108 108.077 4.795C107.805 5.4935 107.62 6.29375 107.566 7.4625C107.514 8.63812 107.5 9.01213 107.5 12.0014C107.5 14.9879 107.514 15.3619 107.566 16.5347C107.621 17.7062 107.805 18.5051 108.077 19.205C108.359 19.9282 108.735 20.5415 109.347 21.1534C109.957 21.7652 110.57 22.142 111.294 22.4225C111.995 22.6947 112.792 22.8804 113.964 22.934C115.138 22.9862 115.512 23 118.5 23C121.488 23 121.861 22.9862 123.035 22.934C124.205 22.879 125.007 22.6947 125.706 22.4225C126.44 22.1462 127.104 21.7131 127.653 21.1534C128.265 20.5415 128.641 19.9282 128.923 19.205C129.193 18.5051 129.379 17.7062 129.434 16.5347C129.486 15.3619 129.5 14.9879 129.5 12C129.5 9.01213 129.486 8.63813 129.434 7.46388C129.379 6.29375 129.193 5.4935 128.923 4.795C128.646 4.06106 128.213 3.39618 127.653 2.84663C127.104 2.28655 126.439 1.85339 125.705 1.5775C125.004 1.30525 124.203 1.11963 123.033 1.066C121.859 1.01375 121.487 1 118.497 1H118.501H118.5ZM117.514 2.98275H118.501C121.438 2.98275 121.786 2.99238 122.945 3.046C124.018 3.09413 124.601 3.27425 124.989 3.42412C125.501 3.6235 125.869 3.86275 126.254 4.24775C126.639 4.63275 126.877 4.9985 127.076 5.51275C127.227 5.89913 127.406 6.48213 127.454 7.55463C127.508 8.71375 127.519 9.06163 127.519 11.9973C127.519 14.9329 127.508 15.2821 127.454 16.4412C127.406 17.5138 127.226 18.0954 127.076 18.4831C126.9 18.9607 126.618 19.3926 126.252 19.7467C125.867 20.1318 125.502 20.3696 124.987 20.569C124.602 20.7203 124.019 20.899 122.945 20.9485C121.786 21.0007 121.438 21.0131 118.501 21.0131C115.564 21.0131 115.215 21.0007 114.056 20.9485C112.984 20.899 112.402 20.7203 112.014 20.569C111.536 20.3929 111.104 20.1119 110.749 19.7467C110.383 19.392 110.101 18.9598 109.924 18.4818C109.774 18.0954 109.594 17.5124 109.546 16.4399C109.494 15.2807 109.483 14.9329 109.483 11.9945C109.483 9.0575 109.494 8.711 109.546 7.55187C109.595 6.47937 109.774 5.89638 109.926 5.50863C110.125 4.99575 110.364 4.62862 110.749 4.24362C111.134 3.85862 111.5 3.62075 112.014 3.42138C112.402 3.27012 112.984 3.09138 114.056 3.04188C115.071 2.99513 115.464 2.98137 117.514 2.98V2.98275ZM124.373 4.80875C124.199 4.80875 124.028 4.84289 123.867 4.90923C123.707 4.97557 123.562 5.0728 123.439 5.19537C123.317 5.31794 123.219 5.46346 123.153 5.62361C123.087 5.78376 123.053 5.9554 123.053 6.12875C123.053 6.30209 123.087 6.47374 123.153 6.63389C123.219 6.79404 123.317 6.93956 123.439 7.06213C123.562 7.1847 123.707 7.28193 123.867 7.34827C124.028 7.41461 124.199 7.44875 124.373 7.44875C124.723 7.44875 125.058 7.30968 125.306 7.06213C125.554 6.81458 125.693 6.47884 125.693 6.12875C125.693 5.77866 125.554 5.44292 125.306 5.19537C125.058 4.94782 124.723 4.80875 124.373 4.80875ZM118.501 6.3515C117.752 6.33981 117.008 6.47729 116.312 6.75594C115.617 7.0346 114.983 7.44885 114.449 7.97458C113.915 8.50032 113.491 9.12703 113.202 9.81823C112.912 10.5094 112.763 11.2513 112.763 12.0007C112.763 12.7501 112.912 13.4919 113.202 14.1831C113.491 14.8743 113.915 15.5011 114.449 16.0268C114.983 16.5525 115.617 16.9668 116.312 17.2454C117.008 17.5241 117.752 17.6616 118.501 17.6499C119.984 17.6267 121.399 17.0214 122.439 15.9645C123.48 14.9076 124.063 13.4839 124.063 12.0007C124.063 10.5175 123.48 9.09382 122.439 8.03691C121.399 6.97999 119.984 6.37464 118.501 6.3515ZM118.501 8.33288C119.474 8.33288 120.407 8.71923 121.094 9.40695C121.782 10.0947 122.168 11.0274 122.168 12C122.168 12.9726 121.782 13.9053 121.094 14.593C120.407 15.2808 119.474 15.6671 118.501 15.6671C117.529 15.6671 116.596 15.2808 115.908 14.593C115.221 13.9053 114.834 12.9726 114.834 12C114.834 11.0274 115.221 10.0947 115.908 9.40695C116.596 8.71923 117.529 8.33288 118.501 8.33288Z" fill="#96BB7C"/>
</g>
<g clip-path="url(#clip3_2636_2589)">
<path d="M158.411 21C166.713 21 171.255 14.0731 171.255 8.07669C171.255 7.88285 171.255 7.68625 171.246 7.49241C172.131 6.84789 172.894 6.04993 173.5 5.13592C172.674 5.50262 171.799 5.7443 170.903 5.85312C171.847 5.28495 172.554 4.391 172.892 3.3374C172.005 3.86647 171.035 4.23787 170.023 4.43534C169.342 3.70572 168.442 3.22237 167.461 3.06016C166.48 2.89795 165.474 3.06592 164.597 3.53807C163.721 4.01023 163.024 4.7602 162.613 5.67182C162.203 6.58345 162.103 7.60585 162.328 8.58066C160.533 8.49005 158.778 8.02057 157.175 7.20269C155.572 6.3848 154.157 5.23678 153.024 3.83307C152.448 4.83421 152.272 6.01843 152.532 7.14526C152.792 8.27209 153.468 9.25705 154.423 9.90013C153.708 9.87565 153.008 9.68215 152.38 9.33524V9.39754C152.381 10.4463 152.742 11.4625 153.401 12.2743C154.061 13.0861 154.978 13.6438 155.999 13.853C155.612 13.9605 155.211 14.014 154.81 14.0122C154.526 14.0131 154.244 13.9867 153.965 13.9333C154.254 14.8361 154.816 15.6254 155.572 16.1908C156.328 16.7561 157.241 17.0691 158.183 17.0859C156.583 18.3511 154.607 19.0373 152.572 19.034C152.214 19.0355 151.856 19.0147 151.5 18.9716C153.565 20.297 155.962 21.0008 158.411 21Z" fill="#96BB7C"/>
</g>
</g>
<defs>
<clipPath id="clip0_2636_2589">
<rect width="112" height="24" fill="white" transform="translate(62)"/>
</clipPath>
<clipPath id="clip1_2636_2589">
<rect width="24" height="24" fill="white" transform="translate(62)"/>
</clipPath>
<clipPath id="clip2_2636_2589">
<rect width="24" height="24" fill="white" transform="translate(106)"/>
</clipPath>
<clipPath id="clip3_2636_2589">
<rect width="24" height="19.7647" fill="white" transform="translate(150 2.11719)"/>
</clipPath>
</defs>
</svg>
