<svg width="132" height="23" viewBox="0 0 132 23" fill="none" xmlns="http://www.w3.org/2000/svg">
<g clip-path="url(#clip0_2636_2469)">
<path d="M21.0969 8.41964C21.0392 8.24983 20.9331 8.10061 20.7916 7.99043C20.6501 7.88024 20.4795 7.81389 20.3007 7.79959L15.0716 7.38408L12.8087 2.37506C12.7367 2.21373 12.6195 2.07671 12.4712 1.98052C12.323 1.88434 12.1501 1.8331 11.9734 1.83301C11.7968 1.83291 11.6238 1.88395 11.4755 1.97998C11.3272 2.076 11.2098 2.2129 11.1375 2.37415L8.87473 7.38408L3.64558 7.79959C3.46989 7.8135 3.30193 7.87774 3.16179 7.98462C3.02165 8.0915 2.91527 8.23648 2.85537 8.40224C2.79548 8.56799 2.7846 8.74749 2.82405 8.91926C2.8635 9.09103 2.9516 9.2478 3.07781 9.37081L6.94212 13.1379L5.57544 19.0559C5.53394 19.235 5.54724 19.4225 5.61361 19.594C5.67999 19.7655 5.79637 19.913 5.94765 20.0175C6.09894 20.1221 6.27815 20.1787 6.46202 20.1801C6.6459 20.1815 6.82594 20.1276 6.97881 20.0254L11.9731 16.6958L16.9675 20.0254C17.1237 20.1291 17.308 20.1825 17.4955 20.1784C17.683 20.1743 17.8647 20.1129 18.0162 20.0024C18.1678 19.8919 18.2819 19.7377 18.3431 19.5604C18.4044 19.3832 18.4099 19.1914 18.3589 19.0109L16.6813 13.1406L20.8419 9.39649C21.1143 9.15067 21.2143 8.76727 21.0969 8.41964Z" fill="#F3CD03"/>
<path d="M48.1125 8.41964C48.0548 8.24983 47.9487 8.10061 47.8072 7.99043C47.6658 7.88024 47.4951 7.81389 47.3163 7.79959L42.0872 7.38408L39.8244 2.37506C39.7523 2.21373 39.6351 2.07671 39.4869 1.98052C39.3387 1.88434 39.1658 1.8331 38.9891 1.83301C38.8124 1.83291 38.6394 1.88395 38.4911 1.97998C38.3428 2.076 38.2254 2.2129 38.1532 2.37415L35.8904 7.38408L30.6612 7.79959C30.4855 7.8135 30.3176 7.87774 30.1774 7.98462C30.0373 8.0915 29.9309 8.23648 29.871 8.40224C29.8111 8.56799 29.8002 8.74749 29.8397 8.91926C29.8791 9.09103 29.9672 9.2478 30.0934 9.37081L33.9577 13.1379L32.5911 19.0559C32.5496 19.235 32.5629 19.4225 32.6292 19.594C32.6956 19.7655 32.812 19.913 32.9633 20.0175C33.1146 20.1221 33.2938 20.1787 33.4776 20.1801C33.6615 20.1815 33.8416 20.1276 33.9944 20.0254L38.9888 16.6958L43.9831 20.0254C44.1393 20.1291 44.3236 20.1825 44.5111 20.1784C44.6986 20.1743 44.8803 20.1129 45.0319 20.0024C45.1834 19.8919 45.2975 19.7377 45.3587 19.5604C45.42 19.3832 45.4255 19.1914 45.3746 19.0109L43.6969 13.1406L47.8575 9.39649C48.1299 9.15067 48.2299 8.76727 48.1125 8.41964Z" fill="#F3CD03"/>
<path d="M75.1242 8.41964C75.0666 8.24983 74.9604 8.10061 74.819 7.99043C74.6775 7.88024 74.5068 7.81389 74.3281 7.79959L69.0989 7.38408L66.8361 2.37506C66.764 2.21373 66.6468 2.07671 66.4986 1.98052C66.3504 1.88434 66.1775 1.8331 66.0008 1.83301C65.8241 1.83291 65.6511 1.88395 65.5028 1.97998C65.3545 2.076 65.2371 2.2129 65.1649 2.37415L62.9021 7.38408L57.6729 7.79959C57.4972 7.8135 57.3293 7.87774 57.1891 7.98462C57.049 8.0915 56.9426 8.23648 56.8827 8.40224C56.8228 8.56799 56.8119 8.74749 56.8514 8.91926C56.8908 9.09103 56.9789 9.2478 57.1052 9.37081L60.9695 13.1379L59.6028 19.0559C59.5613 19.235 59.5746 19.4225 59.641 19.594C59.7073 19.7655 59.8237 19.913 59.975 20.0175C60.1263 20.1221 60.3055 20.1787 60.4894 20.1801C60.6732 20.1815 60.8533 20.1276 61.0062 20.0254L66.0005 16.6958L70.9948 20.0254C71.1511 20.1291 71.3353 20.1825 71.5228 20.1784C71.7103 20.1743 71.8921 20.1129 72.0436 20.0024C72.1951 19.8919 72.3092 19.7377 72.3705 19.5604C72.4317 19.3832 72.4372 19.1914 72.3863 19.0109L70.7087 13.1406L74.8692 9.39649C75.1416 9.15067 75.2416 8.76727 75.1242 8.41964Z" fill="#F3CD03"/>
<path d="M102.138 8.41964C102.08 8.24983 101.974 8.10061 101.833 7.99043C101.691 7.88024 101.52 7.81389 101.342 7.79959L96.1126 7.38408L93.8498 2.37506C93.7777 2.21373 93.6605 2.07671 93.5123 1.98052C93.364 1.88434 93.1912 1.8331 93.0145 1.83301C92.8378 1.83291 92.6648 1.88395 92.5165 1.97998C92.3682 2.076 92.2508 2.2129 92.1786 2.37415L89.9157 7.38408L84.6866 7.79959C84.5109 7.8135 84.3429 7.87774 84.2028 7.98462C84.0627 8.0915 83.9563 8.23648 83.8964 8.40224C83.8365 8.56799 83.8256 8.74749 83.8651 8.91926C83.9045 9.09103 83.9926 9.2478 84.1188 9.37081L87.9831 13.1379L86.6165 19.0559C86.575 19.235 86.5883 19.4225 86.6546 19.594C86.721 19.7655 86.8374 19.913 86.9887 20.0175C87.14 20.1221 87.3192 20.1787 87.503 20.1801C87.6869 20.1815 87.867 20.1276 88.0198 20.0254L93.0142 16.6958L98.0085 20.0254C98.1647 20.1291 98.349 20.1825 98.5365 20.1784C98.724 20.1743 98.9057 20.1129 99.0573 20.0024C99.2088 19.8919 99.3229 19.7377 99.3841 19.5604C99.4454 19.3832 99.4509 19.1914 99.3999 19.0109L97.7223 13.1406L101.883 9.39649C102.155 9.15067 102.255 8.76727 102.138 8.41964Z" fill="#F3CD03"/>
<path d="M115 13.1374L113.633 19.0554C113.591 19.2346 113.603 19.4224 113.669 19.5943C113.736 19.7662 113.852 19.9141 114.003 20.0188C114.155 20.1235 114.334 20.1801 114.518 20.1812C114.703 20.1823 114.883 20.1278 115.035 20.0249L120.03 16.6954L125.024 20.0249C125.18 20.1287 125.365 20.1821 125.552 20.178C125.74 20.1739 125.921 20.1124 126.073 20.0019C126.224 19.8915 126.338 19.7372 126.4 19.56C126.461 19.3827 126.467 19.191 126.416 19.0105L124.738 13.1402L128.899 9.39603C129.032 9.27605 129.127 9.11963 129.172 8.94614C129.218 8.77264 129.211 8.58967 129.153 8.41986C129.096 8.25004 128.99 8.10083 128.848 7.99067C128.707 7.88051 128.536 7.81423 128.357 7.80004L123.128 7.38362L120.865 2.3746C120.793 2.21331 120.676 2.07635 120.528 1.98025C120.379 1.88415 120.206 1.83301 120.03 1.83301C119.853 1.83301 119.68 1.88415 119.532 1.98025C119.384 2.07635 119.266 2.21331 119.194 2.3746L116.931 7.38362L111.702 7.79913C111.527 7.81305 111.359 7.87729 111.218 7.98416C111.078 8.09104 110.972 8.23602 110.912 8.40178C110.852 8.56753 110.841 8.74703 110.881 8.9188C110.92 9.09057 111.008 9.24734 111.134 9.37035L115 13.1374ZM117.617 9.16947C117.78 9.15658 117.938 9.09987 118.072 9.0053C118.206 8.91073 118.312 8.78179 118.38 8.63198L120.03 4.98047L121.68 8.63198C121.747 8.78179 121.854 8.91073 121.988 9.0053C122.122 9.09987 122.279 9.15658 122.443 9.16947L126.086 9.4584L123.086 12.1587C122.826 12.3936 122.722 12.7549 122.817 13.0925L123.967 17.1146L120.54 14.8297C120.389 14.7288 120.212 14.6749 120.031 14.6749C119.85 14.6749 119.673 14.7288 119.523 14.8297L115.942 17.2173L116.905 13.0475C116.94 12.8942 116.935 12.7343 116.891 12.5833C116.847 12.4323 116.764 12.2953 116.652 12.1853L113.865 9.46849L117.617 9.16947Z" fill="#F3CD03"/>
</g>
<defs>
<clipPath id="clip0_2636_2469">
<rect width="130.068" height="22.0136" fill="white" transform="translate(0.966797)"/>
</clipPath>
</defs>
</svg>
